<?xml version="1.0" encoding="UTF-8" standalone="no"?>
<!DOCTYPE svg PUBLIC "-//W3C//DTD SVG 1.1//EN" "http://www.w3.org/Graphics/SVG/1.1/DTD/svg11.dtd">
<svg width="100%" height="100%" viewBox="0 0 4704 1575" version="1.1" xmlns="http://www.w3.org/2000/svg" xmlns:xlink="http://www.w3.org/1999/xlink" xml:space="preserve" xmlns:serif="http://www.serif.com/" style="fill-rule:evenodd;clip-rule:evenodd;stroke-linejoin:round;stroke-miterlimit:2;">
    <g transform="matrix(1,0,0,1,-1276,490)">
        <g transform="matrix(1195.83,0,0,1195.83,1203.54,643.829)">
            <rect x="0.063" y="-0.69" width="0.162" height="0.69" style="fill:rgb(0,180,72);fill-rule:nonzero;"/>
        </g>
        <g transform="matrix(1195.83,0,0,1195.83,1547.94,643.829)">
            <path d="M0.537,-0.291C0.537,-0.41 0.5,-0.502 0.357,-0.502C0.286,-0.502 0.241,-0.466 0.214,-0.422L0.212,-0.422L0.213,-0.493L0.053,-0.493L0.053,0L0.213,0L0.213,-0.244C0.213,-0.315 0.232,-0.371 0.301,-0.371C0.367,-0.371 0.377,-0.322 0.377,-0.257L0.377,0L0.537,0L0.537,-0.291Z" style="fill:rgb(0,180,72);fill-rule:nonzero;"/>
        </g>
        <g transform="matrix(1195.83,0,0,1195.83,2249.89,643.829)">
            <path d="M0.434,-0.169C0.434,-0.169 0.384,-0.121 0.309,-0.121C0.234,-0.121 0.185,-0.17 0.185,-0.248C0.185,-0.326 0.239,-0.373 0.307,-0.373C0.376,-0.373 0.42,-0.34 0.434,-0.329L0.469,-0.45C0.469,-0.45 0.412,-0.502 0.286,-0.502C0.151,-0.502 0.024,-0.41 0.024,-0.245C0.024,-0.081 0.149,0.011 0.284,0.011C0.415,0.011 0.467,-0.044 0.472,-0.048L0.434,-0.169Z" style="fill:rgb(0,180,72);fill-rule:nonzero;"/>
        </g>
        <g transform="matrix(1195.83,0,0,1195.83,2826.29,643.829)">
            <path d="M0.526,-0.493L0.366,-0.493L0.366,-0.231C0.366,-0.166 0.34,-0.121 0.283,-0.121C0.226,-0.121 0.21,-0.16 0.21,-0.217L0.21,-0.493L0.05,-0.493L0.05,-0.195C0.05,-0.124 0.062,-0.081 0.086,-0.047C0.111,-0.014 0.156,0.011 0.227,0.011C0.298,0.011 0.35,-0.026 0.371,-0.056L0.372,0L0.526,0L0.526,-0.493Z" style="fill:rgb(0,180,72);fill-rule:nonzero;"/>
        </g>
        <g transform="matrix(1195.83,0,0,1195.83,3518.67,643.829)">
            <path d="M0.605,-0.246C0.605,-0.391 0.515,-0.502 0.373,-0.502C0.289,-0.502 0.239,-0.463 0.218,-0.433L0.215,-0.433C0.215,-0.433 0.217,-0.479 0.217,-0.524L0.217,-0.69L0.057,-0.69L0.057,0L0.209,0L0.208,-0.065L0.209,-0.065C0.246,-0.013 0.305,0.011 0.372,0.011C0.515,0.011 0.605,-0.101 0.605,-0.246ZM0.442,-0.248C0.442,-0.172 0.396,-0.12 0.327,-0.12C0.258,-0.12 0.211,-0.172 0.211,-0.248C0.211,-0.324 0.258,-0.376 0.327,-0.376C0.396,-0.376 0.442,-0.324 0.442,-0.248Z" style="fill:rgb(0,180,72);fill-rule:nonzero;"/>
        </g>
        <g transform="matrix(1195.83,0,0,1195.83,4272.05,643.829)">
            <path d="M0.495,-0.278C0.495,-0.361 0.474,-0.409 0.436,-0.445C0.397,-0.481 0.344,-0.502 0.252,-0.502C0.16,-0.502 0.083,-0.473 0.041,-0.452L0.083,-0.348C0.108,-0.364 0.171,-0.392 0.234,-0.392C0.298,-0.392 0.335,-0.365 0.335,-0.313L0.335,-0.302L0.211,-0.297C0.12,-0.293 0.019,-0.256 0.019,-0.146C0.019,-0.036 0.111,0.011 0.198,0.011C0.278,0.011 0.318,-0.031 0.339,-0.052L0.342,0L0.495,0L0.495,-0.278ZM0.336,-0.136C0.326,-0.119 0.297,-0.091 0.254,-0.091C0.21,-0.091 0.179,-0.114 0.179,-0.152C0.179,-0.189 0.208,-0.21 0.257,-0.212L0.336,-0.217L0.336,-0.136Z" style="fill:rgb(0,180,72);fill-rule:nonzero;"/>
        </g>
        <g transform="matrix(1195.83,0,0,1195.83,4918.99,643.829)">
            <path d="M0.347,-0.492L0.238,-0.492L0.238,-0.626L0.077,-0.626L0.077,-0.492L0.007,-0.492L0.007,-0.371L0.077,-0.371L0.077,-0.18C0.077,-0.105 0.087,-0.064 0.112,-0.035C0.137,-0.006 0.175,0.011 0.232,0.011C0.29,0.011 0.334,-0.002 0.346,-0.005L0.338,-0.13C0.338,-0.13 0.315,-0.121 0.29,-0.121C0.269,-0.121 0.259,-0.125 0.252,-0.133C0.244,-0.142 0.238,-0.152 0.238,-0.194L0.238,-0.371L0.347,-0.371L0.347,-0.492Z" style="fill:rgb(0,180,72);fill-rule:nonzero;"/>
        </g>
        <g transform="matrix(1195.83,0,0,1195.83,5335.14,643.829)">
            <path d="M0.537,-0.261C0.537,-0.405 0.436,-0.502 0.29,-0.502C0.144,-0.502 0.024,-0.409 0.024,-0.246C0.024,-0.083 0.135,0.011 0.287,0.011C0.44,0.011 0.505,-0.057 0.521,-0.069L0.458,-0.152C0.43,-0.133 0.374,-0.105 0.31,-0.105C0.245,-0.105 0.191,-0.137 0.184,-0.208L0.535,-0.208C0.535,-0.208 0.537,-0.237 0.537,-0.261ZM0.185,-0.299C0.187,-0.346 0.221,-0.398 0.287,-0.398C0.354,-0.398 0.387,-0.344 0.388,-0.299L0.185,-0.299Z" style="fill:rgb(0,180,72);fill-rule:nonzero;"/>
        </g>
    </g>
</svg>
